<?xml version="1.0" standalone="no"?><!DOCTYPE svg PUBLIC "-//W3C//DTD SVG 1.1//EN" "http://www.w3.org/Graphics/SVG/1.1/DTD/svg11.dtd"><svg t="1676211866458" class="icon" viewBox="0 0 1024 1024" version="1.1" xmlns="http://www.w3.org/2000/svg" p-id="2904" xmlns:xlink="http://www.w3.org/1999/xlink" width="200" height="200"><path d="M906.408999 322.196472c-101.966327 0.643013-203.920011 1.295057-305.886339 1.939876 14.357613-50.554187 21.634859-95.47298 21.634858-135.021891 0-89.729212-78.61737-177.594409-157.128172-166.193572-69.230464 10.051594-76.818378 69.884314-76.818379 144.847708v67.689761c0 86.877197-72.925982 160.899552-157.471353 169.041975l-11.111843-0.095729v596.676322h602.570006c56.37201 0 104.784025-40.085358 115.28356-95.47298 28.07402-148.082641 56.137202-296.177926 84.211222-444.262374 12.04385-63.669124-29.798956-125.046159-93.457243-137.100847a116.257111 116.257111 0 0 0-21.826317-2.048249zM0.333247 479.870122v444.275017c0 42.507494 34.426482 76.935782 76.935782 76.935783h69.262976V403.665857c-23.090669-0.236614-46.172307-0.48226-69.262976-0.727905C34.78321 402.936146 0.333247 437.384302 0.333247 479.870122z" fill="#231815" p-id="2905"></path></svg>