<?xml version="1.0" standalone="no"?><!DOCTYPE svg PUBLIC "-//W3C//DTD SVG 1.1//EN" "http://www.w3.org/Graphics/SVG/1.1/DTD/svg11.dtd"><svg t="1676211846030" class="icon" viewBox="0 0 1024 1024" version="1.1" xmlns="http://www.w3.org/2000/svg" p-id="2765" xmlns:xlink="http://www.w3.org/1999/xlink" width="200" height="200"><path d="M928.237122 324.242915c63.658286 12.054687 105.501093 73.431723 93.457243 137.100846-28.07402 148.086254-56.137202 296.179733-84.211222 444.262374-10.499535 55.387622-58.91155 95.47298-115.28356 95.47298H219.629577V404.402793l11.111843 0.09573c84.543565-8.142423 157.471354-82.164778 157.471354-169.041975V167.766786c0-74.963394 7.587915-134.796115 76.818378-144.847708 78.508997-11.400837 157.128173 76.46436 157.128173 166.193572 0 39.548912-7.275439 84.467704-21.634859 135.021892 101.964521-0.643013 203.918205-1.296863 305.886339-1.939876 7.329626 0.001806 14.626739 0.675525 21.826317 2.048249z m-21.580672 74.748454c-135.997248 0.866984-271.994497 1.724937-407.991745 2.593727 9.323688-32.820756 18.654602-65.628868 27.976484-98.440593a654.540267 654.540267 0 0 0 4.533603-16.768912c1.370918-5.335563 2.667781-10.6928 3.877946-16.062682 1.157785-5.098949 2.239708-10.223184 3.234934-15.363675a415.095594 415.095594 0 0 0 4.59682-28.55628 336.89546 336.89546 0 0 0 1.865822-19.386119c0.139079-2.068118 0.256483-4.145266 0.352212-6.213384 0.075861-1.950714 0.149916-3.888784 0.193265-5.839497 0.019868-0.975357 0.032512-1.939876 0.05238-2.915233 0.010837-0.975357 0.010837-1.950714 0.010837-2.926071 0-0.717068-0.010837-1.435942-0.032511-2.153009a50.956974 50.956974 0 0 0-0.086699-2.163848 65.94315 65.94315 0 0 0-0.151722-2.153009 46.311385 46.311385 0 0 0-0.20049-2.143979 71.898245 71.898245 0 0 0-0.60147-4.511928 97.378538 97.378538 0 0 0-3.215065-13.627902 106.40962 106.40962 0 0 0-3.343306-9.182804 105.531798 105.531798 0 0 0-4.222934-9.000375 113.605585 113.605585 0 0 0-5.003219-8.604815 106.469225 106.469225 0 0 0-5.648038-8.014181 102.412463 102.412463 0 0 0-6.117655-7.223059 95.653602 95.653602 0 0 0-6.386781-6.280214 84.75128 84.75128 0 0 0-6.419292-5.218159 69.327999 69.327999 0 0 0-6.213384-4.060374 54.303892 54.303892 0 0 0-5.743768-2.926071 44.5142 44.5142 0 0 0-5.057406-1.864015 32.334884 32.334884 0 0 0-4.275314-0.975357 25.901141 25.901141 0 0 0-3.525734-0.288994 18.604028 18.604028 0 0 0-1.553346 0.043349 17.668408 17.668408 0 0 0-1.499159 0.160753c-0.406399 0.054186-0.827247 0.117404-1.233646 0.191459-0.406399 0.075861-0.812797 0.149916-1.221002 0.236615a28.953647 28.953647 0 0 0-1.735774 0.406398c-0.26732 0.621338-0.514772 1.253514-0.738742 1.88569-0.397368 1.103598-0.751386 2.218034-1.062056 3.343306a78.438554 78.438554 0 0 0-1.208358 4.961676 123.588543 123.588543 0 0 0-1.127079 6.300083 160.007281 160.007281 0 0 0-0.975357 7.501216c-0.310669 2.871884-0.558121 5.741962-0.760417 8.624683-0.108373 1.564183-0.21494 3.128367-0.299832 4.69255a444.126908 444.126908 0 0 0-0.364856 8.335688 513.980516 513.980516 0 0 0-0.258289 10.792142 852.109622 852.109622 0 0 0-0.074055 11.572428v67.689761c0 13.992757-1.275189 27.987321-3.784023 41.756108a238.070143 238.070143 0 0 1-10.766855 39.388158 248.192179 248.192179 0 0 1-7.71435 18.549841 253.823961 253.823961 0 0 1-9.117779 17.690082 253.114118 253.114118 0 0 1-22.043064 32.627491 260.086113 260.086113 0 0 1-41.337065 41.349709 259.123399 259.123399 0 0 1-15.708663 11.572428 257.22326 257.22326 0 0 1-32.477575 18.806324 254.26829 254.26829 0 0 1-25.632015 10.73615v456.347767h525.775108c1.221002 0 2.452842-0.05238 3.663007-0.158947a40.446601 40.446601 0 0 0 22.192979-9.161129 40.495369 40.495369 0 0 0 4.938195-4.844272 42.33771 42.33771 0 0 0 4.040506-5.606496 39.953504 39.953504 0 0 0 4.145266-9.643388c0.344987-1.177653 0.623145-2.36795 0.848922-3.567277 28.063182-148.084448 56.135396-296.168895 84.211222-444.253343 0.287188-1.553346 0.500322-3.128367 0.608694-4.703388 0.117404-1.509997 0.139079-3.0218 0.086699-4.542634a40.545943 40.545943 0 0 0-1.325763-8.700543 40.901768 40.901768 0 0 0-8.081012-15.546104 41.118514 41.118514 0 0 0-6.312725-6.119461 39.682572 39.682572 0 0 0-3.608821-2.485353 39.23463 39.23463 0 0 0-8.068368-3.784023 42.399121 42.399121 0 0 0-4.542634-1.253514c-0.397368-0.084892-0.794735-0.160753-1.192102-0.236615a42.364803 42.364803 0 0 0-3.124755-0.460585 36.422351 36.422351 0 0 0-4.018831-0.223971zM77.269029 402.936146c23.090669 0.245645 46.172307 0.491291 69.262976 0.727905v597.415064H77.269029c-42.5093 0-76.935782-34.428288-76.935782-76.935782v-444.275017c0-42.484013 34.449963-76.93217 76.935782-76.93217z m-25.738582 102.533479v393.076011c0 0.899496 0.041543 1.798991 0.139079 2.700293 0.086698 0.857953 0.21494 1.703262 0.38653 2.550378 0.332344 1.625595 0.823635 3.224096 1.477485 4.757573a25.686202 25.686202 0 0 0 5.530634 8.187579 25.890304 25.890304 0 0 0 8.185773 5.539665 25.380951 25.380951 0 0 0 7.316982 1.864015c0.901302 0.095729 1.800798 0.137272 2.702099 0.137273h18.065775v-444.347266c-6.106817-0.075861-12.226278-0.139079-18.334901-0.204103a26.067313 26.067313 0 0 0-4.970707 0.523803c-1.629207 0.343181-3.225902 0.836278-4.757574 1.479291a26.713939 26.713939 0 0 0-4.362012 2.367949 25.90656 25.90656 0 0 0-3.834597 3.171716 25.951715 25.951715 0 0 0-3.182553 3.845435c-0.92117 1.372724-1.715905 2.828535-2.358919 4.351175a24.725295 24.725295 0 0 0-1.477485 4.757573c-0.171591 0.847115-0.299832 1.694231-0.38653 2.550378a24.727101 24.727101 0 0 0-0.139079 2.691262z" fill="#231815" p-id="2766"></path></svg>