<?xml version="1.0" standalone="no"?><!DOCTYPE svg PUBLIC "-//W3C//DTD SVG 1.1//EN" "http://www.w3.org/Graphics/SVG/1.1/DTD/svg11.dtd"><svg t="1676211880011" class="icon" viewBox="0 0 1024 1024" version="1.1" xmlns="http://www.w3.org/2000/svg" p-id="3182" xmlns:xlink="http://www.w3.org/1999/xlink" width="200" height="200"><path d="M0.324216 544.126266V99.856667c0-42.502075 34.439126-76.943007 76.950232-76.943007h69.252138v597.416871l-69.252138 0.727905C34.779598 621.060242 0.324216 586.621116 0.324216 544.126266zM906.401774 701.805334c-101.960909-0.643013-203.927236-1.295057-305.889952-1.936264 14.372063 50.5578 21.64389 95.465755 21.64389 135.014667 0 89.738243-78.615563 177.607053-157.128172 166.202603-69.225045-10.057012-76.829216-69.88612-76.829216-144.858545v-67.689761c0-86.871778-72.916951-160.897746-157.451485-169.040169l-11.119068 0.106567V22.915466h602.566394c56.362979 0 104.7768 40.090776 115.278141 95.47298 28.068601 148.097091 56.146233 296.181539 84.21664 444.269599 12.045656 63.672736-29.79715 125.053384-93.46808 137.09904a116.62016 116.62016 0 0 1-21.819092 2.048249z" fill="#231815" p-id="3183"></path></svg>