<?xml version="1.0" standalone="no"?><!DOCTYPE svg PUBLIC "-//W3C//DTD SVG 1.1//EN" "http://www.w3.org/Graphics/SVG/1.1/DTD/svg11.dtd"><svg t="1676211874468" class="icon" viewBox="0 0 1024 1024" version="1.1" xmlns="http://www.w3.org/2000/svg" p-id="3043" xmlns:xlink="http://www.w3.org/1999/xlink" width="200" height="200"><path d="M906.654644 625.006824c-136.004473-0.865178-271.999915-1.724937-407.995357-2.593726 9.329107 32.817144 18.652795 65.634287 27.980096 98.449624 1.580439 5.563146 3.090436 11.153386 4.531797 16.759881 1.370918 5.335563 2.665975 10.6928 3.879752 16.066294 1.154172 5.104367 2.237902 10.223184 3.23674 15.352838a464.441422 464.441422 0 0 1 2.611788 14.65022c0.736936 4.627526 1.405236 9.260471 1.988645 13.913284 0.538252 4.381881 1.015094 8.774599 1.38898 13.176348 0.175203 2.064505 0.339569 4.139848 0.469616 6.204353 0.139079 2.075343 0.25287 4.150685 0.346794 6.222415 0.086698 1.945295 0.155335 3.888784 0.189652 5.832273 0.027093 0.971744 0.043349 1.954326 0.052381 2.92607 0.018062 0.971744 0.025287 1.941682 0.018062 2.913427 0 0.72068-0.009031 1.443167-0.027093 2.162041s-0.05238 1.441361-0.086699 2.162041c-0.045155 0.711649-0.088505 1.43233-0.14811 2.151203-0.061411 0.711649-0.130048 1.43233-0.198683 2.145785a87.23844 87.23844 0 0 1-0.608695 4.502897c-0.234808 1.491935-0.511159 2.985676-0.825441 4.470385a90.635933 90.635933 0 0 1-1.085536 4.607658c-0.399174 1.528059-0.830859 3.048893-1.309507 4.557084-0.487678 1.553346-1.007869 3.099467-1.562377 4.634751a108.57166 108.57166 0 0 1-5.998444 13.550234 112.563398 112.563398 0 0 1-10.649451 16.622609 107.480706 107.480706 0 0 1-6.119461 7.221252 99.354539 99.354539 0 0 1-6.386781 6.283827 83.851784 83.851784 0 0 1-6.422905 5.205515 68.681374 68.681374 0 0 1-6.206159 4.071212 54.498964 54.498964 0 0 1-5.745574 2.924264c-1.649075 0.718874-3.332469 1.354662-5.059212 1.85679-1.407042 0.417236-2.828535 0.756805-4.269895 0.971744-1.172234 0.184234-2.351694 0.287188-3.532959 0.29622-0.52019 0.009031-1.040381-0.009031-1.553346-0.043349a21.445206 21.445206 0 0 1-1.493741-0.155335 48.731715 48.731715 0 0 1-2.463679-0.435298c-0.581602-0.111985-1.155978-0.251064-1.728549-0.408205a30.655103 30.655103 0 0 1-0.747774-1.882077c-0.397368-1.101792-0.745967-2.221646-1.058442-3.3415a82.446548 82.446548 0 0 1-1.206553-4.965289 118.487788 118.487788 0 0 1-1.128885-6.292857 170.559197 170.559197 0 0 1-0.971744-7.506635c-0.312475-2.871884-0.556315-5.74738-0.76403-8.628295a269.433282 269.433282 0 0 1-0.294413-4.685325 390.798372 390.798372 0 0 1-0.373887-8.341107c-0.121016-3.59437-0.198684-7.194159-0.25287-10.78853a853.169871 853.169871 0 0 1-0.077667-11.579653v-67.689761c0-13.990951-1.266158-27.990934-3.782217-41.756108a237.13091 237.13091 0 0 0-10.770468-39.379127 242.979438 242.979438 0 0 0-7.708931-18.549841 249.393312 249.393312 0 0 0-9.121392-17.697307 253.66682 253.66682 0 0 0-22.04487-32.625685 258.397301 258.397301 0 0 0-26.549573-28.633946 260.05902 260.05902 0 0 0-14.782074-12.713957 260.745382 260.745382 0 0 0-15.717694-11.577846 256.103406 256.103406 0 0 0-32.468544-18.800905 251.768487 251.768487 0 0 0-25.622984-10.734344V99.713976H822.190552c1.224615 0 2.445617 0.05238 3.663007 0.164365a40.069102 40.069102 0 0 1 16.50701 5.207322 40.733789 40.733789 0 0 1 5.685969 3.948389 40.594711 40.594711 0 0 1 8.971477 10.450767 40.813263 40.813263 0 0 1 3.038055 6.256733c0.41543 1.110823 0.791123 2.239708 1.119854 3.375819 0.330538 1.181265 0.606889 2.369756 0.832666 3.567277 28.077632 148.08806 56.146233 296.174314 84.21664 444.262374a41.055296 41.055296 0 0 1 0.695393 9.244215 39.595873 39.595873 0 0 1-1.329375 8.704156 40.815069 40.815069 0 0 1-3.184359 8.183966 40.849387 40.849387 0 0 1-11.205766 13.470761c-1.154172 0.903108-2.360725 1.733968-3.610626 2.497997-1.249902 0.774867-2.552184 1.468454-3.877946 2.091598-1.363693 0.641207-2.759898 1.206552-4.183197 1.6852a41.423764 41.423764 0 0 1-5.747381 1.491935l-1.04038 0.182428c-0.686362 0.113792-1.379949 0.20049-2.07173 0.278157a35.203155 35.203155 0 0 1-4.015219 0.229389z m21.568029 74.748455c63.669124-12.045656 105.513736-73.426304 93.466273-137.09904-28.068601-148.086254-56.148039-296.172508-84.21664-444.269599-10.499535-55.382203-58.904325-95.47298-115.276335-95.47298H219.629577v596.688965l11.117262-0.106566c84.53634 8.142423 157.45871 82.168391 157.45871 169.040169v67.689761c0 74.972425 7.595139 134.801533 76.820184 144.858545 78.512609 11.40445 157.129979-76.46436 157.129979-166.202603 0-39.548912-7.271827-84.456867-21.64389-135.014667 101.962715 0.641207 203.92543 1.293251 305.889952 1.936264a116.295041 116.295041 0 0 0 21.820899-2.048249zM0.329634 544.126266V99.856667c0-42.502075 34.431901-76.943007 76.941201-76.943007h69.252139v597.416871l-69.252139 0.727905C34.777791 621.060242 0.329634 586.621116 0.329634 544.126266zM51.658689 521.219831a25.287028 25.287028 0 0 0 0.391949 2.543153c0.337762 1.63282 0.832666 3.227708 1.473872 4.766604a26.10705 26.10705 0 0 0 5.537859 8.191191c1.181265 1.181265 2.474516 2.239708 3.845435 3.177135 1.370918 0.92117 2.837566 1.719518 4.356593 2.36253 1.53709 0.650238 3.133785 1.145141 4.764799 1.473873 0.823635 0.175203 1.665331 0.303444 2.508834 0.391949 0.814604 0.088505 1.640044 0.139079 2.465485 0.139078 6.101399-0.070442 12.211828-0.131854 18.322258-0.198683V99.717588h-18.053131c-0.903108 0-1.80441 0.041543-2.698487 0.139079-0.859759 0.086698-1.710487 0.207715-2.552184 0.381111a25.462231 25.462231 0 0 0-9.121392 3.845435 26.199167 26.199167 0 0 0-3.836404 3.168103 25.818055 25.818055 0 0 0-3.168103 3.845435 25.494743 25.494743 0 0 0-2.369756 4.347562 26.029383 26.029383 0 0 0-1.473872 4.755768c-0.173397 0.850728-0.303444 1.701456-0.391949 2.552183-0.084892 0.903108-0.130048 1.806216-0.130048 2.700294v393.077817c-0.001806 0.894077 0.043349 1.797185 0.128242 2.689456z" fill="#231815" p-id="3044"></path></svg>